<?xml version="1.0" encoding="UTF-8"?><svg id="Layer_1" xmlns="http://www.w3.org/2000/svg" viewBox="0 0 770.7 356.78"><defs><style>.cls-1{fill:#804528;}.cls-2{font-family:Nexa-Heavy, Nexa;font-size:165.33px;font-weight:800;}.cls-2,.cls-3{fill:#223428;}.cls-4{letter-spacing:-.02em;}.cls-5{letter-spacing:-.01em;}.cls-6{letter-spacing:-.03em;}.cls-7{fill:#728478;font-family:Nexa-Regular, Nexa;font-size:66.85px;}.cls-8{letter-spacing:0em;}.cls-9{letter-spacing:0em;}.cls-10{letter-spacing:.07em;}.cls-11{letter-spacing:.07em;}.cls-12{letter-spacing:.07em;}.cls-13{letter-spacing:.06em;}.cls-14{letter-spacing:.05em;}.cls-15{fill:none;stroke:#223428;stroke-miterlimit:10;stroke-width:26px;}.cls-16{letter-spacing:0em;}</style></defs><text class="cls-2" transform="translate(149.29 275.49)"><tspan x="0" y="0">nsi</tspan><tspan class="cls-4" x="231.3" y="0">d</tspan><tspan x="332.64" y="0">e</tspan></text><rect class="cls-1" x="83.28" y="183.4" width="27.11" height="68.45"/><polygon class="cls-3" points="110.4 226.06 83.28 251.85 83.28 251.85 47.98 251.85 47.98 275.49 83.28 275.49 110.4 275.49 145.7 275.49 145.7 251.85 110.4 251.85 110.4 226.06"/><polygon class="cls-3" points="110.4 159.76 83.28 159.76 48.07 159.76 48.07 183.4 83.28 183.4 83.28 209.26 110.4 183.4 110.4 183.4 145.78 183.4 145.78 159.76 110.4 159.76"/><text class="cls-2" transform="translate(0 140.53)"><tspan class="cls-8" x="0" y="0">E</tspan><tspan class="cls-9" x="109.45" y="0">s</tspan><tspan class="cls-5" x="191.95" y="0">c</tspan><tspan class="cls-6" x="275.44" y="0">a</tspan><tspan class="cls-16" x="375.96" y="0">p</tspan><tspan x="481.94" y="0">e</tspan></text><text class="cls-7" transform="translate(45.43 336.86)"><tspan class="cls-11" x="0" y="0">mobile e</tspan><tspan class="cls-12" x="307.09" y="0">s</tspan><tspan class="cls-13" x="344.92" y="0">c</tspan><tspan class="cls-11" x="383.29" y="0">ape </tspan><tspan class="cls-14" x="541.85" y="0">r</tspan><tspan class="cls-10" x="574.4" y="0">oom</tspan></text><polyline class="cls-15" points="604.03 277.64 604.03 68.07 755.52 39.27 755.52 277.64"/><path class="cls-1" d="M706.97,140.53c0-15.02-12.17-27.19-27.19-27.19s-27.19,12.17-27.19,27.19c0,10.98,6.51,20.43,15.87,24.72l-13.05,55.25h48.76l-13.05-55.25c9.36-4.3,15.87-13.75,15.87-24.72Z"/><circle class="cls-3" cx="722.33" cy="186.65" r="7.91"/></svg>