<?xml version="1.0" encoding="UTF-8"?>
<svg id="Layer_1" xmlns="http://www.w3.org/2000/svg" version="1.1" viewBox="0 0 770.7 356.78">
  <!-- Generator: Adobe Illustrator 29.4.0, SVG Export Plug-In . SVG Version: 2.1.0 Build 152)  -->
  <defs>
    <style>
      .st0 {
        fill: #804528;
      }

      .st1 {
        fill: #728478;
      }

      .st2 {
        isolation: isolate;
      }

      .st3 {
        fill: #223428;
      }

      .st4 {
        fill: none;
        stroke: #223428;
        stroke-miterlimit: 10;
        stroke-width: 26px;
      }
    </style>
  </defs>
  <g class="st2">
    <g class="st2">
      <path class="st3" d="M241.38,229.86v45.63h-21.99v-44.31c0-12.56-6.78-19.84-17.69-19.84-11.9,0-19.84,8.76-19.84,21.33v42.82h-21.99v-81.67h19.01l1.49,9.42c6.45-7.11,16.04-11.08,26.78-11.08,20.83,0,34.22,14.55,34.22,37.7Z"/>
      <path class="st3" d="M255.43,266.07l9.09-15.54c7.61,5.29,18.68,8.43,29.1,8.43,8.76,0,13.89-2.81,13.89-7.6s-4.46-7.27-15.71-8.27c-21-1.65-33.56-10.91-33.56-25.63s14.22-25.79,36.04-25.79c12.73,0,24.14,3.47,32.74,9.26l-8.93,15.21c-6.78-4.3-14.38-6.28-22.82-6.28-10.25,0-15.54,2.65-15.54,7.61,0,4.46,4.13,6.78,14.22,7.77,23.64,2.31,35.21,10.42,35.21,26.12s-14.05,26.29-36.54,26.29c-14.22,0-26.78-4.13-37.2-11.57Z"/>
      <path class="st3" d="M342.23,171c0-7.6,5.62-12.9,13.39-12.9s13.56,5.29,13.56,12.9-5.79,12.57-13.56,12.57-13.39-5.29-13.39-12.57ZM344.54,193.82h21.99v81.67h-21.99v-81.67Z"/>
    </g>
    <g class="st2">
      <path class="st3" d="M474.66,159.76v115.73h-19.01l-1.49-9.92c-6.61,7.61-16.53,11.74-28.27,11.74-23.48,0-39.68-17.52-39.68-42.65s16.2-42.66,39.68-42.66c10.75,0,20.17,3.64,26.78,10.08v-42.32h21.99ZM452.84,234.65c0-13.72-9.26-23.48-22.48-23.48s-22.32,9.75-22.32,23.48,9.26,23.48,22.32,23.48,22.48-9.75,22.48-23.48Z"/>
    </g>
    <g class="st2">
      <path class="st3" d="M572.86,241.93h-62.99c1.49,10.25,10.42,17.03,23.64,17.03,8.76,0,17.52-2.98,22.82-7.77l12.23,12.57c-8.6,8.76-21.66,13.89-35.88,13.89-27.61,0-45.13-16.7-45.13-42.82s17.36-42.66,42.99-42.66c29.59,0,45.96,19.51,42.32,49.76ZM510.2,227.38h41.99c-.83-10.58-8.76-17.19-21-17.19-11.57,0-19.34,6.28-21,17.19Z"/>
    </g>
  </g>
  <rect class="st0" x="83.28" y="183.4" width="27.11" height="68.45"/>
  <polygon class="st3" points="110.4 226.06 83.28 251.85 83.28 251.85 47.98 251.85 47.98 275.49 83.28 275.49 110.4 275.49 145.7 275.49 145.7 251.85 110.4 251.85 110.4 226.06"/>
  <polygon class="st3" points="110.4 159.76 83.28 159.76 48.07 159.76 48.07 183.4 83.28 183.4 83.28 209.26 110.4 183.4 110.4 183.4 145.78 183.4 145.78 159.76 110.4 159.76"/>
  <g class="st2">
    <g class="st2">
      <path class="st3" d="M101.51,120.53v20H13.56V24.8h86.47v19.84h-63.98v27.61h61.01v19.34h-61.01v28.93h65.47Z"/>
    </g>
    <g class="st2">
      <path class="st3" d="M114.08,131.11l9.09-15.54c7.61,5.29,18.68,8.43,29.1,8.43,8.76,0,13.89-2.81,13.89-7.6s-4.46-7.27-15.71-8.27c-21-1.65-33.56-10.91-33.56-25.63s14.22-25.79,36.04-25.79c12.73,0,24.14,3.47,32.74,9.26l-8.93,15.21c-6.78-4.3-14.38-6.28-22.82-6.28-10.25,0-15.54,2.65-15.54,7.61,0,4.46,4.13,6.78,14.22,7.77,23.64,2.31,35.21,10.42,35.21,26.12s-14.05,26.29-36.54,26.29c-14.22,0-26.78-4.13-37.2-11.57Z"/>
    </g>
    <g class="st2">
      <path class="st3" d="M197.57,99.69c0-25.46,17.69-42.66,43.98-42.66,12.07,0,22.65,4.3,31.41,12.73l-12.73,13.72c-4.63-4.63-11.08-7.27-17.86-7.27-13.56,0-22.98,9.59-22.98,23.48s9.26,23.48,22.98,23.48c7.27,0,13.89-2.81,18.85-7.94l12.9,13.89c-9.26,8.93-19.67,13.23-32.24,13.23-26.95,0-44.31-16.7-44.31-42.65Z"/>
    </g>
    <g class="st2">
      <path class="st3" d="M369.51,58.86v81.67h-19.01l-1.49-9.92c-6.78,7.61-16.7,11.74-28.27,11.74-23.48,0-39.68-17.52-39.68-42.65s16.2-42.66,39.68-42.66c11.57,0,21.66,4.13,28.27,11.57l1.49-9.75h19.01ZM347.69,99.69c0-13.72-9.26-23.48-22.48-23.48s-22.32,9.75-22.32,23.48,9.26,23.48,22.32,23.48,22.48-9.75,22.48-23.48Z"/>
    </g>
    <g class="st2">
      <path class="st3" d="M474.99,99.69c0,25.13-16.2,42.65-39.68,42.65-10.75,0-20.17-3.64-26.78-10.25v44.97h-21.99V58.86h19.01l1.49,9.75c6.61-7.44,16.7-11.57,28.27-11.57,23.48,0,39.68,17.53,39.68,42.66ZM453.17,99.69c0-13.72-9.26-23.48-22.32-23.48s-22.49,9.75-22.49,23.48,9.26,23.48,22.49,23.48,22.32-9.75,22.32-23.48Z"/>
    </g>
    <g class="st2">
      <path class="st3" d="M572.87,106.97h-62.99c1.49,10.25,10.42,17.03,23.64,17.03,8.76,0,17.53-2.98,22.82-7.77l12.23,12.57c-8.6,8.76-21.66,13.89-35.88,13.89-27.61,0-45.13-16.7-45.13-42.82s17.36-42.66,42.99-42.66c29.59,0,45.96,19.51,42.32,49.76ZM510.21,92.42h41.99c-.83-10.58-8.76-17.19-21-17.19-11.57,0-19.34,6.28-21,17.19Z"/>
    </g>
  </g>
  <g class="st2">
    <g class="st2">
      <path class="st1" d="M102.59,317.67v19.19h-6.22v-18.78c0-5.88-2.74-9.09-7.75-9.09-5.41,0-9.09,3.88-9.09,9.49v18.38h-6.22v-18.78c0-5.88-2.74-9.09-7.75-9.09-5.35,0-9.09,3.88-9.09,9.49v18.38h-6.22v-33.02h5.55l.07,4.28c2.47-3.28,5.82-4.88,10.03-4.88,5.01,0,9.09,2.34,11.03,6.28,2.61-4.14,6.75-6.28,11.97-6.28,8.49,0,13.7,5.42,13.7,14.44Z"/>
      <path class="st1" d="M114.15,320.35c0-9.83,6.89-17.25,17.45-17.25s17.38,7.42,17.38,17.25-6.89,17.25-17.38,17.25-17.45-7.42-17.45-17.25ZM142.76,320.35c0-6.28-4.41-11.5-11.16-11.5s-11.23,5.21-11.23,11.5,4.41,11.5,11.23,11.5,11.16-5.21,11.16-11.5Z"/>
      <path class="st1" d="M195.71,320.35c0,10.43-6.89,17.25-16.38,17.25-5.48,0-10.09-2.14-12.63-5.62l-.07,4.88h-5.55v-46.79h6.22v17.92c2.61-3.08,6.95-4.88,12.03-4.88,9.49,0,16.38,6.82,16.38,17.25ZM189.49,320.35c0-6.75-4.55-11.5-11.1-11.5s-11.1,4.75-11.1,11.5,4.61,11.5,11.1,11.5,11.1-4.75,11.1-11.5Z"/>
      <path class="st1" d="M206.8,294.08c0-2.41,1.8-4.14,4.21-4.14s4.21,1.74,4.21,4.14-1.74,4.08-4.21,4.08-4.21-1.74-4.21-4.08ZM207.87,303.84h6.22v33.02h-6.22v-33.02Z"/>
      <path class="st1" d="M228.4,290.07h6.22v46.79h-6.22v-46.79Z"/>
      <path class="st1" d="M280.47,322.82h-27.34c.6,5.68,4.95,9.16,11.3,9.16,4.01,0,8.09-1.54,10.03-3.88l4.01,3.81c-3.14,3.61-8.49,5.82-14.17,5.82-10.63,0-17.58-6.89-17.58-17.38s6.82-17.18,16.91-17.18c11.36,0,17.78,7.49,16.85,19.65ZM253.2,317.54h21.39c-.53-5.35-4.61-8.82-10.76-8.82-5.82,0-9.63,3.28-10.63,8.82Z"/>
      <path class="st1" d="M345.45,322.82h-27.34c.6,5.68,4.95,9.16,11.3,9.16,4.01,0,8.09-1.54,10.03-3.88l4.01,3.81c-3.14,3.61-8.49,5.82-14.17,5.82-10.63,0-17.58-6.89-17.58-17.38s6.82-17.18,16.91-17.18c11.36,0,17.78,7.49,16.85,19.65ZM318.18,317.54h21.39c-.53-5.35-4.61-8.82-10.76-8.82-5.82,0-9.63,3.28-10.63,8.82Z"/>
    </g>
    <g class="st2">
      <path class="st1" d="M354.79,332.52l3.14-4.61c2.87,2.54,7.22,4.08,11.83,4.08s7.69-1.67,7.69-4.48-2.34-3.94-8.29-4.68c-8.89-1.07-13.3-4.35-13.3-9.89,0-5.88,5.62-9.83,14.04-9.83,5.01,0,9.23,1.27,12.97,3.94l-2.87,4.55c-3.01-2.14-6.22-3.08-9.83-3.08-5.35,0-8.22,1.54-8.22,4.34,0,2.47,2.14,3.74,7.75,4.48,9.83,1.27,13.9,4.21,13.9,10.23s-5.62,10.03-13.97,10.03c-5.62,0-10.56-1.74-14.84-5.08Z"/>
    </g>
    <g class="st2">
      <path class="st1" d="M392.96,320.35c0-10.23,7.15-17.25,17.38-17.25,4.75,0,8.82,1.67,12.37,5.08l-3.88,4.14c-2.21-2.27-5.21-3.48-8.42-3.48-6.48,0-11.23,4.61-11.23,11.5s4.68,11.5,11.23,11.5c3.41,0,6.55-1.34,8.76-3.68l3.88,4.28c-3.61,3.54-7.62,5.15-12.63,5.15-10.36,0-17.45-6.89-17.45-17.25Z"/>
    </g>
    <g class="st2">
      <path class="st1" d="M465.96,303.84v33.02h-5.48l-.07-4.88c-2.61,3.48-7.15,5.62-12.57,5.62-9.69,0-16.51-7.09-16.51-17.25s6.82-17.25,16.51-17.25c5.42,0,9.96,2.14,12.57,5.62l.07-4.88h5.48ZM459.74,320.35c0-6.75-4.54-11.5-11.1-11.5s-11.1,4.75-11.1,11.5,4.61,11.5,11.1,11.5,11.1-4.75,11.1-11.5Z"/>
      <path class="st1" d="M514.96,320.35c0,10.16-6.75,17.25-16.51,17.25-5.01,0-9.29-1.8-11.9-4.88v19.65h-6.22v-48.53h5.55l.07,4.88c2.54-3.48,7.09-5.62,12.5-5.62,9.76,0,16.51,7.09,16.51,17.25ZM508.74,320.35c0-6.75-4.55-11.5-11.1-11.5s-11.1,4.75-11.1,11.5,4.61,11.5,11.1,11.5,11.1-4.75,11.1-11.5Z"/>
      <path class="st1" d="M558.67,322.82h-27.34c.6,5.68,4.95,9.16,11.3,9.16,4.01,0,8.09-1.54,10.03-3.88l4.01,3.81c-3.14,3.61-8.49,5.82-14.17,5.82-10.63,0-17.58-6.89-17.58-17.38s6.82-17.18,16.91-17.18c11.36,0,17.78,7.49,16.85,19.65ZM531.4,317.54h21.39c-.53-5.35-4.61-8.82-10.76-8.82-5.82,0-9.63,3.28-10.63,8.82Z"/>
    </g>
    <g class="st2">
      <path class="st1" d="M616.16,305.84l-2.81,5.21c-1.87-1.2-3.61-1.74-5.62-1.74-5.68,0-9.42,4.48-9.42,11.3v16.24h-6.22v-33.02h5.55l.07,5.55c2.61-4.14,5.95-6.15,10.36-6.15,3.14,0,6.15,1,8.09,2.61Z"/>
    </g>
    <g class="st2">
      <path class="st1" d="M622.44,320.35c0-9.83,6.89-17.25,17.45-17.25s17.38,7.42,17.38,17.25-6.89,17.25-17.38,17.25-17.45-7.42-17.45-17.25ZM651.05,320.35c0-6.28-4.41-11.5-11.16-11.5s-11.23,5.21-11.23,11.5,4.41,11.5,11.23,11.5,11.16-5.21,11.16-11.5Z"/>
      <path class="st1" d="M667.16,320.35c0-9.83,6.89-17.25,17.45-17.25s17.38,7.42,17.38,17.25-6.89,17.25-17.38,17.25-17.45-7.42-17.45-17.25ZM695.77,320.35c0-6.28-4.41-11.5-11.16-11.5s-11.23,5.21-11.23,11.5,4.41,11.5,11.23,11.5,11.16-5.21,11.16-11.5Z"/>
      <path class="st1" d="M766.43,317.67v19.19h-6.22v-18.78c0-5.88-2.74-9.09-7.75-9.09-5.41,0-9.09,3.88-9.09,9.49v18.38h-6.22v-18.78c0-5.88-2.74-9.09-7.75-9.09-5.35,0-9.09,3.88-9.09,9.49v18.38h-6.22v-33.02h5.55l.07,4.28c2.47-3.28,5.82-4.88,10.03-4.88,5.01,0,9.09,2.34,11.03,6.28,2.61-4.14,6.75-6.28,11.97-6.28,8.49,0,13.7,5.42,13.7,14.44Z"/>
    </g>
  </g>
  <polyline class="st4" points="604.03 277.64 604.03 68.07 755.52 39.27 755.52 277.64"/>
  <path class="st0" d="M706.97,140.53c0-15.02-12.17-27.19-27.19-27.19s-27.19,12.17-27.19,27.19c0,10.98,6.51,20.43,15.87,24.72l-13.05,55.25h48.76l-13.05-55.25c9.36-4.3,15.87-13.75,15.87-24.72h-.02Z"/>
  <circle class="st3" cx="722.33" cy="186.65" r="7.91"/>
</svg>